<svg id="Calque_1" data-name="Calque 1" xmlns="http://www.w3.org/2000/svg" viewBox="0 0 367.33 378.33"><defs><style>.cls-1{fill:none;}.cls-1,.cls-2,.cls-3{stroke:#999;}.cls-1,.cls-2,.cls-3,.cls-4{stroke-miterlimit:10;stroke-width:19px;}.cls-2{fill:#069;}.cls-3{fill:#fc3;}.cls-4{fill:#fff;stroke:#fff;}</style></defs><circle class="cls-1" cx="183.34" cy="279.57" r="19.67"/><circle class="cls-1" cx="183.34" cy="104.76" r="19.67"/><path class="cls-2" d="M170.82-2.27c-.37,0-.74,0-1.11,0h-2.3a174.16,174.16,0,0,0,0,348.31,87.08,87.08,0,0,1,1.12-174.16A87.08,87.08,0,0,0,170.82-2.27Zm-2.72,106.4a19.67,19.67,0,1,1,19.68-19.67A19.67,19.67,0,0,1,168.1,104.13Z" transform="translate(15.24 20.3)"/><circle class="cls-1" cx="183.34" cy="104.76" r="19.67"/><path class="cls-3" d="M170.82-2.27a87.08,87.08,0,0,1-2.29,174.13A87.08,87.08,0,0,0,167.41,346h2.3A174.16,174.16,0,0,0,170.82-2.27ZM168.1,278.94a19.68,19.68,0,1,1,19.68-19.67A19.67,19.67,0,0,1,168.1,278.94Z" transform="translate(15.24 20.3)"/><circle class="cls-1" cx="183.34" cy="279.57" r="19.67"/><circle class="cls-4" cx="183.34" cy="104.76" r="19.67"/><circle class="cls-4" cx="183.34" cy="279.57" r="19.67"/><text x="15.24" y="20.3"/></svg>